<svg xmlns="http://www.w3.org/2000/svg" viewBox="0 0 2048 2048" width="1280" height="1280" preserveAspectRatio="none" display="block"><path fill="#241f21" d="M1016.27 307.43c4.85-.226 9.72-.35 14.58-.37 41.35-.446 63 2.822 102.55 15.796 83.1 27.26 140.34 95.146 190.26 162.498a1694.462 1694.462 0 0199.92 152.948c31.15 54.455 60.64 112.626 92.27 166.348l111.8 190.432c75.88 130.528 158.44 277.638 158.15 432.858a398.973 398.973 0 01-117.25 278.54c-71.34 71.07-165.14 112.59-266.9 109.29-118.77-3.84-220-75.68-314.65-139.58-18.82-12.71-37.64-31.02-57.77-39.91-6.5 1.16-15.48 10.59-20.78 14.8-100.363 79.64-209.834 165.89-344.669 164.49-35.413-.37-76.867-8.35-110.385-19.56-153.957-51.48-261.39-214.07-259.237-373.37 2.242-180.88 111.127-342.15 195.086-494.098 6.299-11.4 13.939-22.93 19.033-34.867l.579-1.375c.743 11.329-.744 23.147-1.437 34.547-1.689 27.76-1.616 74.173 5.073 101.083 13.012 52.35 4.122 51.07-18.44 93.05-59.541 110.8-126.31 247.25-93.447 375.81 30.885 154.58 201.541 267.18 353.544 205.51 59.786-24.26 147.016-85.85 193.664-131.43-14.253-17.17-33.504-33.02-50.256-48.12a2848.474 2848.474 0 01-62.405-58.62c-135.588-133.85-260.82-290.02-276.052-487.898-3.189-41.428.548-73.16 7.612-113.708 20.336-116.732 77.809-213.934 142.819-310.912a1698.452 1698.452 0 0155.337-77.771c44.314-59.375 88.851-112.465 158.047-142.534 27.156-11.801 64.088-21.859 93.354-23.877zm315.02 1397.73c13.69 3.72 27.37 7.64 41.32 10.18 135.54 24.7 265.56-72.59 302.92-200.64 41.17-141.13-34.59-298.3-104.76-418.2l-82-138.097c-9-14.911-18.21-29.216-27.5-43.855-6.62-10.437-13.29-24.831-19.55-35.89-10.25-18.129-21.54-36.689-31.68-54.764-23.08-41.134-44.81-84.055-67.69-125.327-17.94-32.374-37.4-64.882-58.34-95.343-5.04-7.331-9.5-16.832-14.81-24.558-11-16.001-23.18-34.151-35.18-49.353-11.87-15.042-28.19-39.534-41.04-52.783-29.66-30.586-66.03-54.841-107.48-65.922-17.19-4.598-37.42-5.371-55.03-5.202-121.288 9.969-169.652 102.078-232.722 192.792-73.965 106.384-147.986 242.835-136.858 376.75a444.142 444.142 0 0028.475 124.432c55.425 144.89 198.682 288.79 314.885 389.18 77.38 66.85 232.39 187.82 327.04 216.6z"/><path fill="#241f21" d="M910.11 697.432c49.608-5.379 129.96 7.765 176.89 20.284 129.9 34.656 279.71 106.184 334.47 237.679 5.23 12.562 7.25 23.465 10.27 36.709 41.38 181.496-99.12 339.346-215.94 459.976-15.1 15.53-30.44 30.85-46 45.93-9.09 8.95-21.75 22.33-31.75 29.26-21.38-12.26-39.44-29.81-59.93-43.57-5.51-3.71-14.73-10.52-14.98-17.59 3.95-8.21 34.87-33.49 44.92-43.53 4.32-3.33 13.07-12.63 17.47-16.99a1649.79 1649.79 0 0038.51-39.07c47.62-50.23 113.95-128.04 145.3-190.2a336.69 336.69 0 0028.47-81.08c9.83-43.79 1.74-89.69-22.48-127.477-54.49-84.121-186.92-139.88-281.91-159.992-108.957-23.071-215.912-7.144-309.57 53.721 9.332-38.479 37.415-106.906 60.437-138.365 40.638-16.86 82.152-22.617 125.823-25.695z"/></svg>