<svg version="1.1" xmlns="http://www.w3.org/2000/svg" style="display: block;" viewBox="0 0 2048 2048" width="1280" height="1280" preserveAspectRatio="none">
<path transform="translate(0,0)" fill="rgb(9,15,18)" d="M 1016.27 307.43 C 1021.12 307.204 1025.99 307.08 1030.85 307.06 C 1072.2 306.614 1093.85 309.882 1133.4 322.856 C 1216.5 350.116 1273.74 418.002 1323.66 485.354 C 1359.69 534.502 1393.05 585.559 1423.58 638.302 C 1454.73 692.757 1484.22 750.928 1515.85 804.65 L 1627.65 995.082 C 1703.53 1125.61 1786.09 1272.72 1785.8 1427.94 C 1784.75 1532.57 1742.65 1632.6 1668.55 1706.48 C 1597.21 1777.55 1503.41 1819.07 1401.65 1815.77 C 1282.88 1811.93 1181.65 1740.09 1087 1676.19 C 1068.18 1663.48 1049.36 1645.17 1029.23 1636.28 C 1022.73 1637.44 1013.75 1646.87 1008.45 1651.08 C 908.087 1730.72 798.616 1816.97 663.781 1815.57 C 628.368 1815.2 586.914 1807.22 553.396 1796.01 C 399.439 1744.53 292.006 1581.94 294.159 1422.64 C 296.401 1241.76 405.286 1080.49 489.245 928.542 C 495.544 917.142 503.184 905.612 508.278 893.675 L 508.857 892.3 C 509.6 903.629 508.113 915.447 507.42 926.847 C 505.731 954.607 505.804 1001.02 512.493 1027.93 C 525.505 1080.28 516.615 1079 494.053 1120.98 C 434.512 1231.78 367.743 1368.23 400.606 1496.79 C 431.491 1651.37 602.147 1763.97 754.15 1702.3 C 813.936 1678.04 901.166 1616.45 947.814 1570.87 C 933.561 1553.7 914.31 1537.85 897.558 1522.75 C 876.461 1503.52 855.657 1483.98 835.153 1464.13 C 699.565 1330.28 574.333 1174.11 559.101 976.232 C 555.912 934.804 559.649 903.072 566.713 862.524 C 587.049 745.792 644.522 648.59 709.532 551.612 C 727.246 525.175 745.698 499.241 764.869 473.841 C 809.183 414.466 853.72 361.376 922.916 331.307 C 950.072 319.506 987.004 309.448 1016.27 307.43 z M 1331.29 1705.16 C 1344.98 1708.88 1358.66 1712.8 1372.61 1715.34 C 1508.15 1740.04 1638.17 1642.75 1675.53 1514.7 C 1716.7 1373.57 1640.94 1216.4 1570.77 1096.5 L 1488.77 958.403 C 1479.77 943.492 1470.56 929.187 1461.27 914.548 C 1454.65 904.111 1447.98 889.717 1441.72 878.658 C 1431.47 860.529 1420.18 841.969 1410.04 823.894 C 1386.96 782.76 1365.23 739.839 1342.35 698.567 C 1324.41 666.193 1304.95 633.685 1284.01 603.224 C 1278.97 595.893 1274.51 586.392 1269.2 578.666 C 1258.2 562.665 1246.02 544.515 1234.02 529.313 C 1222.15 514.271 1205.83 489.779 1192.98 476.53 C 1163.32 445.944 1126.95 421.689 1085.5 410.608 C 1068.31 406.01 1048.08 405.237 1030.47 405.406 C 909.182 415.375 860.818 507.484 797.748 598.198 C 723.783 704.582 649.762 841.033 660.89 974.948 C 664.341 1017.58 673.931 1059.49 689.365 1099.38 C 744.79 1244.27 888.047 1388.17 1004.25 1488.56 C 1081.63 1555.41 1236.64 1676.38 1331.29 1705.16 z"/>
<path transform="translate(0,0)" fill="rgb(9,15,18)" d="M 910.11 697.432 C 959.718 692.053 1040.07 705.197 1087 717.716 C 1216.9 752.372 1366.71 823.9 1421.47 955.395 C 1426.7 967.957 1428.72 978.86 1431.74 992.104 C 1473.12 1173.6 1332.62 1331.45 1215.8 1452.08 C 1200.7 1467.61 1185.36 1482.93 1169.8 1498.01 C 1160.71 1506.96 1148.05 1520.34 1138.05 1527.27 C 1116.67 1515.01 1098.61 1497.46 1078.12 1483.7 C 1072.61 1479.99 1063.39 1473.18 1063.14 1466.11 C 1067.09 1457.9 1098.01 1432.62 1108.06 1422.58 C 1112.38 1419.25 1121.13 1409.95 1125.53 1405.59 C 1138.58 1392.78 1151.42 1379.76 1164.04 1366.52 C 1211.66 1316.29 1277.99 1238.48 1309.34 1176.32 C 1322.25 1150.63 1331.82 1123.38 1337.81 1095.24 C 1347.64 1051.45 1339.55 1005.55 1315.33 967.763 C 1260.84 883.642 1128.41 827.883 1033.42 807.771 C 924.463 784.7 817.508 800.627 723.85 861.492 C 733.182 823.013 761.265 754.586 784.287 723.127 C 824.925 706.267 866.439 700.51 910.11 697.432 z"/>
</svg>